<?xml version="1.0" encoding="utf-8"?>
<!-- Generator: Adobe Illustrator 16.0.3, SVG Export Plug-In . SVG Version: 6.00 Build 0)  -->
<svg version="1.2" baseProfile="tiny" xmlns="http://www.w3.org/2000/svg" xmlns:xlink="http://www.w3.org/1999/xlink" x="0px"
	 y="0px" width="50px" height="50px" viewBox="0 0 50 50" xml:space="preserve">
<g id="Ebene_1" display="none">
	<path display="inline" fill="#3C3C3C" d="M0.706,24.02L19.338,4.854c0,0,2.218-2.341,2.218,0.198c0,2.54,0,8.691,0,8.691
		s1.492,0,3.786,0c6.564,0,18.483,0,23.34,0c0,0,1.318-0.345,1.318,1.658c0,2.002,0,18.267,0,19.703c0,1.438-1.1,1.395-1.1,1.395
		c-4.731,0-17.063,0-23.39,0c-2.069,0-3.412,0-3.412,0s0,4.931,0,8.029c0,3.087-2.301,0.758-2.301,0.758S2.375,28.42,0.559,26.608
		C-0.779,25.27,0.706,24.02,0.706,24.02z"/>
</g>
<g id="Ebene_2">
	<g>
		<path fill="#3C3C3C" d="M39.635,35.606l-9.28-10.605l9.28-10.606c1.577-1.578,1.577-4.134,0-5.712
			c-1.578-1.577-4.135-1.577-5.712,0L25,18.882L16.077,8.684c-1.577-1.577-4.134-1.578-5.712,0c-1.577,1.578-1.577,4.134,0,5.712
			l9.28,10.606l-9.28,10.605c-1.577,1.576-1.577,4.134,0,5.711c1.578,1.577,4.134,1.577,5.712,0L25,31.119l8.923,10.198
			c1.578,1.577,4.135,1.577,5.713,0C41.212,39.74,41.212,37.183,39.635,35.606z"/>
	</g>
</g>
</svg>
